Seven Samurai - Shichinin no Samurai*1954*[DVD5][PAL][JPN, POL]

General information:
Country: Japan
Release: 26 April 1954
Genre: Action, Adventure, Drama 
Director: Akira Kurosawa
Screenplay: Akira Kurosawa, Shinobu Hashimoto, Hideo Oguni
Original Music: Fumio Hayasaka
Cinematography by: Asakazu Nakai
Duration: 3h 21mn
Language: Japanese, Polish 
Subtitles: Polish
Rating: 8.4/10 - 12248 votes


Cast:
Toshirô Mifune  ...  Kikuchiyo  
Takashi Shimura  ...  Kanbe Shimada  
Keiko Tsushima  ...  Shino  
Yukiko Shimazaki  ...  Rikichi's Wife  
Kamatari Fujiwara  ...  Manzô - Father of Shino  
Daisuke Katô  ...  Shichirôji  
Isao Kimura  ...  Katsushirô Okamoto  
Minoru Chiaki  ...  Heihachi Hayashida  
Seiji Miyaguchi  ...  Kyuzô  
Yoshio Kosugi  ...  Mosuke  
Bokuzen Hidari  ...  Yohei  
Yoshio Inaba  ...  Gorobe Katayama  
Yoshio Tsuchiya  ...  Rikichi  
Kokuten Kôdô  ...  Gisaku, the Old Man  
Eijirô Tôno  ...  Kidnapper  

Plot:
A poor village under attack by bandits recruits seven unemployed samurai to help them defend themselves. 

Specifications:
General
Format                           : MPEG-PS
Overall bit rate                 : 2 971 Kbps

Video
Format                           : MPEG Video
Format version                   : Version 2
Format settings, BVOP            : Yes
Format settings, Matrix          : Default
Format settings, GOP             : M=3, N=12
Bit rate mode                    : Variable
Bit rate                         : 2 239 Kbps
Nominal bit rate                 : 8 000 Kbps
Width                            : 720 pixels
Height                           : 576 pixels
Display aspect ratio             : 4:3
Frame rate                       : 25.000 fps
Standard                         : PAL

Audio 1
Format                           : AC-3
Format/Info                      : Audio Coding 3
Mode extension                   : CM (complete main)
Bit rate mode                    : Constant
Bit rate                         : 448 Kbps
Channel(s)                       : 6 channels
Channel positions                : Front: L C R, Side: L R, LFE
Sampling rate                    : 48.0 KHz
Video delay                      : -352ms
Stream size                      : 154 MiB (15%)

Audio 2
Format                           : AC-3
Format/Info                      : Audio Coding 3
Mode extension                   : CM (complete main)
Bit rate mode                    : Constant
Bit rate                         : 224 Kbps
Channel(s)                       : 2 channels
Channel positions                : Front: L R
Sampling rate                    : 48.0 KHz
Video delay                      : -320ms
Stream size                      : 77.2 MiB (8%)

Text
Format                           : RLE
Format/Info                      : Run-length encoding
